<mxfile host="app.diagrams.net" modified="2024-04-26T23:57:41.265Z" agent="Mozilla/5.0 (Windows NT 10.0; Win64; x64) AppleWebKit/537.36 (KHTML, like Gecko) Chrome/124.0.0.0 Safari/537.36" etag="B4q_EEe0VTKT7_aZxOfj" version="24.3.1" type="device">
  <diagram name="Page-1" id="eYHZ0gysdG7wIed73o2C">
    <mxGraphModel dx="3000" dy="1649" grid="1" gridSize="10" guides="1" tooltips="1" connect="1" arrows="1" fold="1" page="1" pageScale="1" pageWidth="850" pageHeight="1100" math="0" shadow="0">
      <root>
        <mxCell id="0" />
        <mxCell id="1" parent="0" />
        <mxCell id="9u1hF3k5s46z1qokk_3E-2" value="" style="rounded=1;whiteSpace=wrap;html=1;arcSize=0;fillColor=#6a00ff;strokeColor=#3700CC;fontColor=#ffffff;" vertex="1" parent="1">
          <mxGeometry x="320" y="80" width="1920" height="1080" as="geometry" />
        </mxCell>
        <mxCell id="9u1hF3k5s46z1qokk_3E-3" value="" style="endArrow=none;html=1;rounded=0;" edge="1" parent="1">
          <mxGeometry width="50" height="50" relative="1" as="geometry">
            <mxPoint x="1440" y="770" as="sourcePoint" />
            <mxPoint x="1490" y="720" as="targetPoint" />
          </mxGeometry>
        </mxCell>
        <mxCell id="9u1hF3k5s46z1qokk_3E-6" value="" style="shape=link;html=1;rounded=0;" edge="1" parent="1">
          <mxGeometry width="100" relative="1" as="geometry">
            <mxPoint x="1410" y="750" as="sourcePoint" />
            <mxPoint x="1510" y="750" as="targetPoint" />
          </mxGeometry>
        </mxCell>
        <mxCell id="9u1hF3k5s46z1qokk_3E-8" value="" style="rounded=0;whiteSpace=wrap;html=1;fillColor=#6a00ff;fontColor=#ffffff;strokeColor=#3700CC;" vertex="1" parent="1">
          <mxGeometry x="320" y="620" width="1920" height="540" as="geometry" />
        </mxCell>
        <mxCell id="9u1hF3k5s46z1qokk_3E-9" value="" style="rounded=0;whiteSpace=wrap;html=1;fillColor=#1ba1e2;fontColor=#ffffff;strokeColor=#006EAF;" vertex="1" parent="1">
          <mxGeometry x="1280" y="620" width="860" height="540" as="geometry" />
        </mxCell>
        <mxCell id="9u1hF3k5s46z1qokk_3E-10" value="WORLD" style="text;strokeColor=none;fillColor=none;align=left;verticalAlign=middle;spacingLeft=4;spacingRight=4;overflow=hidden;points=[[0,0.5],[1,0.5]];portConstraint=eastwest;rotatable=0;whiteSpace=wrap;html=1;strokeWidth=7;fontSize=50;" vertex="1" parent="1">
          <mxGeometry x="1140" y="1330" width="200" height="90" as="geometry" />
        </mxCell>
        <mxCell id="9u1hF3k5s46z1qokk_3E-12" value="WORLD" style="text;strokeColor=none;fillColor=none;align=left;verticalAlign=middle;spacingLeft=4;spacingRight=4;overflow=hidden;points=[[0,0.5],[1,0.5]];portConstraint=eastwest;rotatable=0;whiteSpace=wrap;html=1;strokeWidth=7;fontSize=50;" vertex="1" parent="1">
          <mxGeometry x="1610" y="845" width="200" height="90" as="geometry" />
        </mxCell>
        <mxCell id="9u1hF3k5s46z1qokk_3E-13" value="" style="rounded=0;whiteSpace=wrap;html=1;fillColor=#fff2cc;strokeColor=#d6b656;" vertex="1" parent="1">
          <mxGeometry x="320" y="80" width="520" height="540" as="geometry" />
        </mxCell>
        <mxCell id="9u1hF3k5s46z1qokk_3E-14" value="" style="rounded=0;whiteSpace=wrap;html=1;fillColor=#d5e8d4;strokeColor=#82b366;" vertex="1" parent="1">
          <mxGeometry x="840" y="80" width="760" height="540" as="geometry" />
        </mxCell>
        <mxCell id="9u1hF3k5s46z1qokk_3E-15" value="" style="rounded=0;whiteSpace=wrap;html=1;fillColor=#76608a;strokeColor=#432D57;fontColor=#ffffff;" vertex="1" parent="1">
          <mxGeometry x="1600" y="80" width="540" height="540" as="geometry" />
        </mxCell>
        <mxCell id="9u1hF3k5s46z1qokk_3E-16" value="" style="rounded=0;whiteSpace=wrap;html=1;fillColor=#60a917;fontColor=#ffffff;strokeColor=#2D7600;" vertex="1" parent="1">
          <mxGeometry x="320" y="620" width="960" height="540" as="geometry" />
        </mxCell>
        <mxCell id="9u1hF3k5s46z1qokk_3E-11" value="PCP" style="text;strokeColor=none;fillColor=none;align=left;verticalAlign=middle;spacingLeft=4;spacingRight=4;overflow=hidden;points=[[0,0.5],[1,0.5]];portConstraint=eastwest;rotatable=0;whiteSpace=wrap;html=1;strokeWidth=7;fontSize=50;" vertex="1" parent="1">
          <mxGeometry x="720" y="870" width="200" height="90" as="geometry" />
        </mxCell>
        <mxCell id="9u1hF3k5s46z1qokk_3E-17" value="" style="rounded=0;whiteSpace=wrap;html=1;fillColor=#f0a30a;strokeColor=#BD7000;fontColor=#000000;" vertex="1" parent="1">
          <mxGeometry x="323" y="360" width="517" height="260" as="geometry" />
        </mxCell>
        <mxCell id="9u1hF3k5s46z1qokk_3E-18" value="BAR" style="text;strokeColor=none;fillColor=none;align=left;verticalAlign=middle;spacingLeft=4;spacingRight=4;overflow=hidden;points=[[0,0.5],[1,0.5]];portConstraint=eastwest;rotatable=0;whiteSpace=wrap;html=1;strokeWidth=7;fontSize=50;" vertex="1" parent="1">
          <mxGeometry x="490" y="190" width="200" height="90" as="geometry" />
        </mxCell>
        <mxCell id="9u1hF3k5s46z1qokk_3E-19" value="SCATTER" style="text;strokeColor=none;fillColor=none;align=left;verticalAlign=middle;spacingLeft=4;spacingRight=4;overflow=hidden;points=[[0,0.5],[1,0.5]];portConstraint=eastwest;rotatable=0;whiteSpace=wrap;html=1;strokeWidth=7;fontSize=50;" vertex="1" parent="1">
          <mxGeometry x="470" y="430" width="260" height="90" as="geometry" />
        </mxCell>
        <mxCell id="9u1hF3k5s46z1qokk_3E-20" value="TREE" style="text;strokeColor=none;fillColor=none;align=left;verticalAlign=middle;spacingLeft=4;spacingRight=4;overflow=hidden;points=[[0,0.5],[1,0.5]];portConstraint=eastwest;rotatable=0;whiteSpace=wrap;html=1;strokeWidth=7;fontSize=50;" vertex="1" parent="1">
          <mxGeometry x="1060.5" y="305" width="200" height="90" as="geometry" />
        </mxCell>
        <mxCell id="9u1hF3k5s46z1qokk_3E-21" value="PIE" style="text;strokeColor=none;fillColor=none;align=left;verticalAlign=middle;spacingLeft=4;spacingRight=4;overflow=hidden;points=[[0,0.5],[1,0.5]];portConstraint=eastwest;rotatable=0;whiteSpace=wrap;html=1;strokeWidth=7;fontSize=50;" vertex="1" parent="1">
          <mxGeometry x="1730.5" y="305" width="200" height="90" as="geometry" />
        </mxCell>
        <mxCell id="9u1hF3k5s46z1qokk_3E-23" value="TOP" style="text;strokeColor=none;fillColor=none;align=left;verticalAlign=middle;spacingLeft=4;spacingRight=4;overflow=hidden;points=[[0,0.5],[1,0.5]];portConstraint=eastwest;rotatable=0;whiteSpace=wrap;html=1;strokeWidth=7;fontSize=50;" vertex="1" parent="1">
          <mxGeometry x="2138" y="570" width="200" height="90" as="geometry" />
        </mxCell>
      </root>
    </mxGraphModel>
  </diagram>
</mxfile>
